<?xml version="1.0" encoding="UTF-8"?><svg xmlns="http://www.w3.org/2000/svg" xmlns:xlink="http://www.w3.org/1999/xlink" fill-opacity="1" color-rendering="auto" color-interpolation="auto" text-rendering="auto" stroke="black" stroke-linecap="square" width="1050" stroke-miterlimit="10" shape-rendering="auto" stroke-opacity="1" fill="black" stroke-dasharray="none" font-weight="normal" stroke-width="1" height="645" font-family="'Dialog'" font-style="normal" stroke-linejoin="miter" font-size="12px" stroke-dashoffset="0" image-rendering="auto">
  <!--Generated by ySVG 2.6-->
  <defs id="genericDefs"/>
  <g>
    <defs id="defs1">
      <clipPath clipPathUnits="userSpaceOnUse" id="clipPath1">
        <path d="M0 0 L1050 0 L1050 645 L0 645 L0 0 Z"/>
      </clipPath>
      <clipPath clipPathUnits="userSpaceOnUse" id="clipPath2">
        <path d="M-500 -225 L550 -225 L550 420 L-500 420 L-500 -225 Z"/>
      </clipPath>
    </defs>
    <g fill="white" text-rendering="geometricPrecision" shape-rendering="geometricPrecision" transform="translate(500,225)" stroke="white">
      <rect x="-500" width="1050" height="645" y="-225" clip-path="url(#clipPath2)" stroke="none"/>
    </g>
    <g fill="rgb(210,222,238)" text-rendering="geometricPrecision" shape-rendering="geometricPrecision" transform="matrix(1,0,0,1,500,225)" stroke="rgb(210,222,238)">
      <path d="M132.65 -165 L175 -165 L167.35 -135 L125 -135 Z" stroke="none" clip-path="url(#clipPath2)"/>
      <path fill="none" d="M132.65 -165 L175 -165 L167.35 -135 L125 -135 Z" clip-path="url(#clipPath2)" stroke-linecap="butt" stroke="black"/>
    </g>
    <g text-rendering="geometricPrecision" stroke-miterlimit="1.45" shape-rendering="geometricPrecision" transform="matrix(1,0,0,1,500,225)" stroke-linecap="butt">
      <text x="144.6826" xml:space="preserve" y="-151.3984" clip-path="url(#clipPath2)" stroke="none">tc</text>
    </g>
    <g fill="rgb(210,222,238)" text-rendering="geometricPrecision" shape-rendering="geometricPrecision" transform="matrix(1,0,0,1,500,225)" stroke="rgb(210,222,238)">
      <path d="M222.65 -165 L265 -165 L257.35 -135 L215 -135 Z" stroke="none" clip-path="url(#clipPath2)"/>
      <path fill="none" d="M222.65 -165 L265 -165 L257.35 -135 L215 -135 Z" clip-path="url(#clipPath2)" stroke-linecap="butt" stroke="black"/>
    </g>
    <g text-rendering="geometricPrecision" stroke-miterlimit="1.45" shape-rendering="geometricPrecision" transform="matrix(1,0,0,1,500,225)" stroke-linecap="butt">
      <text x="225.0645" xml:space="preserve" y="-151.3984" clip-path="url(#clipPath2)" stroke="none">patm</text>
    </g>
    <g fill="rgb(210,222,238)" text-rendering="geometricPrecision" shape-rendering="geometricPrecision" transform="matrix(1,0,0,1,500,225)" stroke="rgb(210,222,238)">
      <path d="M312.65 -165 L355 -165 L347.35 -135 L305 -135 Z" stroke="none" clip-path="url(#clipPath2)"/>
      <path fill="none" d="M312.65 -165 L355 -165 L347.35 -135 L305 -135 Z" clip-path="url(#clipPath2)" stroke-linecap="butt" stroke="black"/>
    </g>
    <g text-rendering="geometricPrecision" stroke-miterlimit="1.45" shape-rendering="geometricPrecision" transform="matrix(1,0,0,1,500,225)" stroke-linecap="butt">
      <text x="319.4473" xml:space="preserve" y="-151.3984" clip-path="url(#clipPath2)" stroke="none">co2</text>
    </g>
    <g fill="rgb(210,222,238)" text-rendering="geometricPrecision" shape-rendering="geometricPrecision" transform="matrix(1,0,0,1,500,225)" stroke="rgb(210,222,238)">
      <path d="M402.65 -165 L445 -165 L437.35 -135 L395 -135 Z" stroke="none" clip-path="url(#clipPath2)"/>
      <path fill="none" d="M402.65 -165 L445 -165 L437.35 -135 L395 -135 Z" clip-path="url(#clipPath2)" stroke-linecap="butt" stroke="black"/>
    </g>
    <g text-rendering="geometricPrecision" stroke-miterlimit="1.45" shape-rendering="geometricPrecision" transform="matrix(1,0,0,1,500,225)" stroke-linecap="butt">
      <text x="409.3418" xml:space="preserve" y="-151.3984" clip-path="url(#clipPath2)" stroke="none">vpd</text>
    </g>
    <g fill="rgb(210,222,238)" text-rendering="geometricPrecision" shape-rendering="geometricPrecision" transform="matrix(1,0,0,1,500,225)" stroke="rgb(210,222,238)">
      <path d="M492.65 -165 L535 -165 L527.35 -135 L485 -135 Z" stroke="none" clip-path="url(#clipPath2)"/>
      <path fill="none" d="M492.65 -165 L535 -165 L527.35 -135 L485 -135 Z" clip-path="url(#clipPath2)" stroke-linecap="butt" stroke="black"/>
    </g>
    <g text-rendering="geometricPrecision" stroke-miterlimit="1.45" shape-rendering="geometricPrecision" transform="matrix(1,0,0,1,500,225)" stroke-linecap="butt">
      <text x="498.4746" xml:space="preserve" y="-151.3984" clip-path="url(#clipPath2)" stroke="none">elev</text>
    </g>
    <g fill="rgb(255,174,150)" text-rendering="geometricPrecision" shape-rendering="geometricPrecision" transform="matrix(1,0,0,1,500,225)" stroke="rgb(255,174,150)">
      <path d="M-167.35 -45 L-125 -45 L-132.65 -15 L-175 -15 Z" stroke="none" clip-path="url(#clipPath2)"/>
      <path fill="none" d="M-167.35 -45 L-125 -45 L-132.65 -15 L-175 -15 Z" clip-path="url(#clipPath2)" stroke-linecap="butt" stroke="black"/>
    </g>
    <g text-rendering="geometricPrecision" stroke-miterlimit="1.45" shape-rendering="geometricPrecision" transform="matrix(1,0,0,1,500,225)" stroke-linecap="butt">
      <text x="-186.5977" xml:space="preserve" y="-31.3984" clip-path="url(#clipPath2)" stroke="none">ftemp_kphio</text>
    </g>
    <g fill="rgb(210,222,238)" text-rendering="geometricPrecision" shape-rendering="geometricPrecision" transform="matrix(1,0,0,1,500,225)" stroke="rgb(210,222,238)">
      <path d="M-167.35 -165 L-125 -165 L-132.65 -135 L-175 -135 Z" stroke="none" clip-path="url(#clipPath2)"/>
      <path fill="none" d="M-167.35 -165 L-125 -165 L-132.65 -135 L-175 -135 Z" clip-path="url(#clipPath2)" stroke-linecap="butt" stroke="black"/>
    </g>
    <g text-rendering="geometricPrecision" stroke-miterlimit="1.45" shape-rendering="geometricPrecision" transform="matrix(1,0,0,1,500,225)" stroke-linecap="butt">
      <text x="-156.8672" xml:space="preserve" y="-151.3984" clip-path="url(#clipPath2)" stroke="none">c4</text>
    </g>
    <g fill="rgb(255,174,150)" text-rendering="geometricPrecision" shape-rendering="geometricPrecision" transform="matrix(1,0,0,1,500,225)" stroke="rgb(255,174,150)">
      <path d="M72.65 -45 L115 -45 L107.35 -15 L65 -15 Z" stroke="none" clip-path="url(#clipPath2)"/>
      <path fill="none" d="M72.65 -45 L115 -45 L107.35 -15 L65 -15 Z" clip-path="url(#clipPath2)" stroke-linecap="butt" stroke="black"/>
    </g>
    <g text-rendering="geometricPrecision" stroke-miterlimit="1.45" shape-rendering="geometricPrecision" transform="matrix(1,0,0,1,500,225)" stroke-linecap="butt">
      <text x="57.3574" xml:space="preserve" y="-31.3984" clip-path="url(#clipPath2)" stroke="none">gammastar</text>
    </g>
    <g fill="rgb(255,174,150)" text-rendering="geometricPrecision" shape-rendering="geometricPrecision" transform="matrix(1,0,0,1,500,225)" stroke="rgb(255,174,150)">
      <path d="M252.65 -45 L295 -45 L287.35 -15 L245 -15 Z" stroke="none" clip-path="url(#clipPath2)"/>
      <path fill="none" d="M252.65 -45 L295 -45 L287.35 -15 L245 -15 Z" clip-path="url(#clipPath2)" stroke-linecap="butt" stroke="black"/>
    </g>
    <g text-rendering="geometricPrecision" stroke-miterlimit="1.45" shape-rendering="geometricPrecision" transform="matrix(1,0,0,1,500,225)" stroke-linecap="butt">
      <text x="249.1465" xml:space="preserve" y="-31.3984" clip-path="url(#clipPath2)" stroke="none">ns_star</text>
    </g>
    <g fill="rgb(255,174,150)" text-rendering="geometricPrecision" shape-rendering="geometricPrecision" transform="matrix(1,0,0,1,500,225)" stroke="rgb(255,174,150)">
      <path d="M162.65 -45 L205 -45 L197.35 -15 L155 -15 Z" stroke="none" clip-path="url(#clipPath2)"/>
      <path fill="none" d="M162.65 -45 L205 -45 L197.35 -15 L155 -15 Z" clip-path="url(#clipPath2)" stroke-linecap="butt" stroke="black"/>
    </g>
    <g text-rendering="geometricPrecision" stroke-miterlimit="1.45" shape-rendering="geometricPrecision" transform="matrix(1,0,0,1,500,225)" stroke-linecap="butt">
      <text x="165.29" xml:space="preserve" y="-31.3984" clip-path="url(#clipPath2)" stroke="none">kmm</text>
    </g>
    <g fill="rgb(255,174,150)" text-rendering="geometricPrecision" shape-rendering="geometricPrecision" transform="matrix(1,0,0,1,500,225)" stroke="rgb(255,174,150)">
      <path d="M342.65 -45 L385 -45 L377.35 -15 L335 -15 Z" stroke="none" clip-path="url(#clipPath2)"/>
      <path fill="none" d="M342.65 -45 L385 -45 L377.35 -15 L335 -15 Z" clip-path="url(#clipPath2)" stroke-linecap="butt" stroke="black"/>
    </g>
    <g text-rendering="geometricPrecision" stroke-miterlimit="1.45" shape-rendering="geometricPrecision" transform="matrix(1,0,0,1,500,225)" stroke-linecap="butt">
      <text x="353.6133" xml:space="preserve" y="-31.3984" clip-path="url(#clipPath2)" stroke="none">ca</text>
    </g>
    <g fill="rgb(255,174,150)" text-rendering="geometricPrecision" shape-rendering="geometricPrecision" transform="matrix(1,0,0,1,500,225)" stroke="rgb(255,174,150)">
      <path d="M165 70 L255 70 L255 110 L165 110 Z" stroke="none" clip-path="url(#clipPath2)"/>
      <path fill="none" d="M165 70 L255 70 L255 110 L165 110 Z" clip-path="url(#clipPath2)" stroke-linecap="butt" stroke="black"/>
    </g>
    <g text-rendering="geometricPrecision" stroke-miterlimit="1.45" shape-rendering="geometricPrecision" transform="matrix(1,0,0,1,500,225)" stroke-linecap="butt">
      <text x="165.0527" xml:space="preserve" y="83.6016" clip-path="url(#clipPath2)" stroke="none">CalcOptimalChi</text>
    </g>
    <g fill="rgb(255,174,150)" text-rendering="geometricPrecision" shape-rendering="geometricPrecision" transform="matrix(1,0,0,1,500,225)" stroke="rgb(255,174,150)">
      <path d="M192.65 195 L235 195 L227.35 225 L185 225 Z" stroke="none" clip-path="url(#clipPath2)"/>
      <path fill="none" d="M192.65 195 L235 195 L227.35 225 L185 225 Z" clip-path="url(#clipPath2)" stroke-linecap="butt" stroke="black"/>
    </g>
    <g text-rendering="geometricPrecision" stroke-miterlimit="1.45" shape-rendering="geometricPrecision" transform="matrix(1,0,0,1,500,225)" stroke-linecap="butt">
      <text x="201.4688" xml:space="preserve" y="208.6016" clip-path="url(#clipPath2)" stroke="none">chi</text>
    </g>
    <g fill="rgb(255,174,150)" text-rendering="geometricPrecision" shape-rendering="geometricPrecision" transform="matrix(1,0,0,1,500,225)" stroke="rgb(255,174,150)">
      <path d="M-195 70 L-105 70 L-105 110 L-195 110 Z" stroke="none" clip-path="url(#clipPath2)"/>
      <path fill="none" d="M-195 70 L-105 70 L-105 110 L-195 110 Z" clip-path="url(#clipPath2)" stroke-linecap="butt" stroke="black"/>
    </g>
    <g text-rendering="geometricPrecision" stroke-miterlimit="1.45" shape-rendering="geometricPrecision" transform="matrix(1,0,0,1,500,225)" stroke-linecap="butt">
      <text x="-192.4717" xml:space="preserve" y="83.6016" clip-path="url(#clipPath2)" stroke="none">CalcLUEVcmax</text>
    </g>
    <g fill="rgb(210,222,238)" text-rendering="geometricPrecision" shape-rendering="geometricPrecision" transform="matrix(1,0,0,1,500,225)" stroke="rgb(210,222,238)">
      <path d="M-317.35 -165 L-275 -165 L-282.65 -135 L-325 -135 Z" stroke="none" clip-path="url(#clipPath2)"/>
    </g>
    <g text-rendering="geometricPrecision" stroke-dasharray="2,2" shape-rendering="geometricPrecision" stroke-dashoffset="1" transform="matrix(1,0,0,1,500,225)">
      <path fill="none" d="M-317.35 -165 L-275 -165 L-282.65 -135 L-325 -135 Z" clip-path="url(#clipPath2)"/>
    </g>
    <g text-rendering="geometricPrecision" stroke-miterlimit="1.45" shape-rendering="geometricPrecision" transform="matrix(1,0,0,1,500,225)" stroke-linecap="butt">
      <text x="-316.4268" xml:space="preserve" y="-151.3984" clip-path="url(#clipPath2)" stroke="none">kphio</text>
    </g>
    <g fill="rgb(255,174,150)" text-rendering="geometricPrecision" shape-rendering="geometricPrecision" transform="matrix(1,0,0,1,500,225)" stroke="rgb(255,174,150)">
      <path d="M-167.35 195 L-125 195 L-132.65 225 L-175 225 Z" stroke="none" clip-path="url(#clipPath2)"/>
      <path fill="none" d="M-167.35 195 L-125 195 L-132.65 225 L-175 225 Z" clip-path="url(#clipPath2)" stroke-linecap="butt" stroke="black"/>
    </g>
    <g text-rendering="geometricPrecision" stroke-miterlimit="1.45" shape-rendering="geometricPrecision" transform="matrix(1,0,0,1,500,225)" stroke-linecap="butt">
      <text x="-160.6084" xml:space="preserve" y="208.6016" clip-path="url(#clipPath2)" stroke="none">LUE</text>
    </g>
    <g fill="rgb(255,174,150)" text-rendering="geometricPrecision" shape-rendering="geometricPrecision" transform="matrix(1,0,0,1,500,225)" stroke="rgb(255,174,150)">
      <path d="M-272.35 195 L-230 195 L-237.65 225 L-280 225 Z" stroke="none" clip-path="url(#clipPath2)"/>
      <path fill="none" d="M-272.35 195 L-230 195 L-237.65 225 L-280 225 Z" clip-path="url(#clipPath2)" stroke-linecap="butt" stroke="black"/>
    </g>
    <g text-rendering="geometricPrecision" stroke-miterlimit="1.45" shape-rendering="geometricPrecision" transform="matrix(1,0,0,1,500,225)" stroke-linecap="butt">
      <text x="-300.8994" xml:space="preserve" y="208.6016" clip-path="url(#clipPath2)" stroke="none">Vcmax_unitiabs</text>
    </g>
    <g fill="rgb(255,174,150)" text-rendering="geometricPrecision" shape-rendering="geometricPrecision" transform="matrix(1,0,0,1,500,225)" stroke="rgb(255,174,150)">
      <path d="M72.65 195 L115 195 L107.35 225 L65 225 Z" stroke="none" clip-path="url(#clipPath2)"/>
      <path fill="none" d="M72.65 195 L115 195 L107.35 225 L65 225 Z" clip-path="url(#clipPath2)" stroke-linecap="butt" stroke="black"/>
    </g>
    <g text-rendering="geometricPrecision" stroke-miterlimit="1.45" shape-rendering="geometricPrecision" transform="matrix(1,0,0,1,500,225)" stroke-linecap="butt">
      <text x="82.5732" xml:space="preserve" y="208.6016" clip-path="url(#clipPath2)" stroke="none">mj</text>
    </g>
    <g fill="rgb(255,174,150)" text-rendering="geometricPrecision" shape-rendering="geometricPrecision" transform="matrix(1,0,0,1,500,225)" stroke="rgb(255,174,150)">
      <path d="M72.65 75 L115 75 L107.35 105 L65 105 Z" stroke="none" clip-path="url(#clipPath2)"/>
      <path fill="none" d="M72.65 75 L115 75 L107.35 105 L65 105 Z" clip-path="url(#clipPath2)" stroke-linecap="butt" stroke="black"/>
    </g>
    <g text-rendering="geometricPrecision" stroke-miterlimit="1.45" shape-rendering="geometricPrecision" transform="matrix(1,0,0,1,500,225)" stroke-linecap="butt">
      <text x="75.8145" xml:space="preserve" y="88.6016" clip-path="url(#clipPath2)" stroke="none">mjoc</text>
    </g>
    <g fill="rgb(255,174,150)" text-rendering="geometricPrecision" shape-rendering="geometricPrecision" transform="matrix(1,0,0,1,500,225)" stroke="rgb(255,174,150)">
      <path d="M312.65 195 L355 195 L347.35 225 L305 225 Z" stroke="none" clip-path="url(#clipPath2)"/>
      <path fill="none" d="M312.65 195 L355 195 L347.35 225 L305 225 Z" clip-path="url(#clipPath2)" stroke-linecap="butt" stroke="black"/>
    </g>
    <g text-rendering="geometricPrecision" stroke-miterlimit="1.45" shape-rendering="geometricPrecision" transform="matrix(1,0,0,1,500,225)" stroke-linecap="butt">
      <text x="325.1924" xml:space="preserve" y="208.6016" clip-path="url(#clipPath2)" stroke="none">ci</text>
    </g>
    <g fill="rgb(255,174,150)" text-rendering="geometricPrecision" shape-rendering="geometricPrecision" transform="matrix(1,0,0,1,500,225)" stroke="rgb(255,174,150)">
      <path d="M432.65 195 L475 195 L467.35 225 L425 225 Z" stroke="none" clip-path="url(#clipPath2)"/>
      <path fill="none" d="M432.65 195 L475 195 L467.35 225 L425 225 Z" clip-path="url(#clipPath2)" stroke-linecap="butt" stroke="black"/>
    </g>
    <g text-rendering="geometricPrecision" stroke-miterlimit="1.45" shape-rendering="geometricPrecision" transform="matrix(1,0,0,1,500,225)" stroke-linecap="butt">
      <text x="436.5762" xml:space="preserve" y="208.6016" clip-path="url(#clipPath2)" stroke="none">iwue</text>
    </g>
    <g fill="rgb(255,174,150)" text-rendering="geometricPrecision" shape-rendering="geometricPrecision" transform="matrix(1,0,0,1,500,225)" stroke="rgb(255,174,150)">
      <path d="M-377.35 -45 L-335 -45 L-342.65 -15 L-385 -15 Z" stroke="none" clip-path="url(#clipPath2)"/>
      <path fill="none" d="M-377.35 -45 L-335 -45 L-342.65 -15 L-385 -15 Z" clip-path="url(#clipPath2)" stroke-linecap="butt" stroke="black"/>
    </g>
    <g text-rendering="geometricPrecision" stroke-miterlimit="1.45" shape-rendering="geometricPrecision" transform="matrix(1,0,0,1,500,225)" stroke-linecap="butt">
      <text x="-407.3496" xml:space="preserve" y="-31.3984" clip-path="url(#clipPath2)" stroke="none">ftemp25_Vcmax</text>
    </g>
    <g fill="rgb(255,174,150)" text-rendering="geometricPrecision" shape-rendering="geometricPrecision" transform="matrix(1,0,0,1,500,225)" stroke="rgb(255,174,150)">
      <path d="M-377.35 195 L-335 195 L-342.65 225 L-385 225 Z" stroke="none" clip-path="url(#clipPath2)"/>
      <path fill="none" d="M-377.35 195 L-335 195 L-342.65 225 L-385 225 Z" clip-path="url(#clipPath2)" stroke-linecap="butt" stroke="black"/>
    </g>
    <g text-rendering="geometricPrecision" stroke-miterlimit="1.45" shape-rendering="geometricPrecision" transform="matrix(1,0,0,1,500,225)" stroke-linecap="butt">
      <text x="-413.4873" xml:space="preserve" y="208.6016" clip-path="url(#clipPath2)" stroke="none">Vcmax25_unitiabs</text>
    </g>
    <g fill="rgb(255,174,150)" text-rendering="geometricPrecision" shape-rendering="geometricPrecision" transform="matrix(1,0,0,1,500,225)" stroke="rgb(255,174,150)">
      <path d="M-467.35 -45 L-425 -45 L-432.65 -15 L-475 -15 Z" stroke="none" clip-path="url(#clipPath2)"/>
      <path fill="none" d="M-467.35 -45 L-425 -45 L-432.65 -15 L-475 -15 Z" clip-path="url(#clipPath2)" stroke-linecap="butt" stroke="black"/>
    </g>
    <g text-rendering="geometricPrecision" stroke-miterlimit="1.45" shape-rendering="geometricPrecision" transform="matrix(1,0,0,1,500,225)" stroke-linecap="butt">
      <text x="-476.4023" xml:space="preserve" y="-31.3984" clip-path="url(#clipPath2)" stroke="none">ftemp_rd</text>
    </g>
    <g fill="rgb(255,174,150)" text-rendering="geometricPrecision" shape-rendering="geometricPrecision" transform="matrix(1,0,0,1,500,225)" stroke="rgb(255,174,150)">
      <path d="M-467.35 195 L-425 195 L-432.65 225 L-475 225 Z" stroke="none" clip-path="url(#clipPath2)"/>
      <path fill="none" d="M-467.35 195 L-425 195 L-432.65 225 L-475 225 Z" clip-path="url(#clipPath2)" stroke-linecap="butt" stroke="black"/>
    </g>
    <g text-rendering="geometricPrecision" stroke-miterlimit="1.45" shape-rendering="geometricPrecision" transform="matrix(1,0,0,1,500,225)" stroke-linecap="butt">
      <text x="-482.54" xml:space="preserve" y="208.6016" clip-path="url(#clipPath2)" stroke="none">rd_unitiabs</text>
    </g>
    <g fill="rgb(210,222,238)" text-rendering="geometricPrecision" shape-rendering="geometricPrecision" transform="matrix(1,0,0,1,500,225)" stroke="rgb(210,222,238)">
      <path d="M312.65 375 L355 375 L347.35 405 L305 405 Z" stroke="none" clip-path="url(#clipPath2)"/>
    </g>
    <g text-rendering="geometricPrecision" stroke-dasharray="2,2" shape-rendering="geometricPrecision" stroke-dashoffset="1" transform="matrix(1,0,0,1,500,225)">
      <path fill="none" d="M312.65 375 L355 375 L347.35 405 L305 405 Z" clip-path="url(#clipPath2)"/>
    </g>
    <g text-rendering="geometricPrecision" stroke-miterlimit="1.45" shape-rendering="geometricPrecision" transform="matrix(1,0,0,1,500,225)" stroke-linecap="butt">
      <text x="316.4648" xml:space="preserve" y="388.6016" clip-path="url(#clipPath2)" stroke="none">ppfd</text>
    </g>
    <g fill="rgb(210,222,238)" text-rendering="geometricPrecision" shape-rendering="geometricPrecision" transform="matrix(1,0,0,1,500,225)" stroke="rgb(210,222,238)">
      <path d="M192.65 375 L235 375 L227.35 405 L185 405 Z" stroke="none" clip-path="url(#clipPath2)"/>
    </g>
    <g text-rendering="geometricPrecision" stroke-dasharray="2,2" shape-rendering="geometricPrecision" stroke-dashoffset="1" transform="matrix(1,0,0,1,500,225)">
      <path fill="none" d="M192.65 375 L235 375 L227.35 405 L185 405 Z" clip-path="url(#clipPath2)"/>
    </g>
    <g text-rendering="geometricPrecision" stroke-miterlimit="1.45" shape-rendering="geometricPrecision" transform="matrix(1,0,0,1,500,225)" stroke-linecap="butt">
      <text x="194.9355" xml:space="preserve" y="388.6016" clip-path="url(#clipPath2)" stroke="none">fapar</text>
    </g>
    <g fill="rgb(255,174,150)" text-rendering="geometricPrecision" shape-rendering="geometricPrecision" transform="matrix(1,0,0,1,500,225)" stroke="rgb(255,174,150)">
      <path d="M72.65 375 L115 375 L107.35 405 L65 405 Z" stroke="none" clip-path="url(#clipPath2)"/>
    </g>
    <g text-rendering="geometricPrecision" stroke-dasharray="2,2" shape-rendering="geometricPrecision" stroke-dashoffset="1" transform="matrix(1,0,0,1,500,225)">
      <path fill="none" d="M72.65 375 L115 375 L107.35 405 L65 405 Z" clip-path="url(#clipPath2)"/>
    </g>
    <g text-rendering="geometricPrecision" stroke-miterlimit="1.45" shape-rendering="geometricPrecision" transform="matrix(1,0,0,1,500,225)" stroke-linecap="butt">
      <text x="78.123" xml:space="preserve" y="388.6016" clip-path="url(#clipPath2)" stroke="none">Iabs</text>
    </g>
    <g fill="rgb(255,174,150)" text-rendering="geometricPrecision" shape-rendering="geometricPrecision" transform="matrix(1,0,0,1,500,225)" stroke="rgb(255,174,150)">
      <path d="M-167.35 315 L-125 315 L-132.65 345 L-175 345 Z" stroke="none" clip-path="url(#clipPath2)"/>
    </g>
    <g text-rendering="geometricPrecision" stroke-dasharray="2,2" shape-rendering="geometricPrecision" stroke-dashoffset="1" transform="matrix(1,0,0,1,500,225)">
      <path fill="none" d="M-167.35 315 L-125 315 L-132.65 345 L-175 345 Z" clip-path="url(#clipPath2)"/>
    </g>
    <g text-rendering="geometricPrecision" stroke-miterlimit="1.45" shape-rendering="geometricPrecision" transform="matrix(1,0,0,1,500,225)" stroke-linecap="butt">
      <text x="-161.2939" xml:space="preserve" y="328.6016" clip-path="url(#clipPath2)" stroke="none">gpp</text>
    </g>
    <g fill="rgb(255,174,150)" text-rendering="geometricPrecision" shape-rendering="geometricPrecision" transform="matrix(1,0,0,1,500,225)" stroke="rgb(255,174,150)">
      <path d="M-273.6 315 L-231.25 315 L-238.9 345 L-281.25 345 Z" stroke="none" clip-path="url(#clipPath2)"/>
    </g>
    <g text-rendering="geometricPrecision" stroke-dasharray="2,2" shape-rendering="geometricPrecision" stroke-dashoffset="1" transform="matrix(1,0,0,1,500,225)">
      <path fill="none" d="M-273.6 315 L-231.25 315 L-238.9 345 L-281.25 345 Z" clip-path="url(#clipPath2)"/>
    </g>
    <g text-rendering="geometricPrecision" stroke-miterlimit="1.45" shape-rendering="geometricPrecision" transform="matrix(1,0,0,1,500,225)" stroke-linecap="butt">
      <text x="-275.0234" xml:space="preserve" y="328.6016" clip-path="url(#clipPath2)" stroke="none">vcmax</text>
    </g>
    <g fill="rgb(255,174,150)" text-rendering="geometricPrecision" shape-rendering="geometricPrecision" transform="matrix(1,0,0,1,500,225)" stroke="rgb(255,174,150)">
      <path d="M-377.35 315 L-335 315 L-342.65 345 L-385 345 Z" stroke="none" clip-path="url(#clipPath2)"/>
    </g>
    <g text-rendering="geometricPrecision" stroke-dasharray="2,2" shape-rendering="geometricPrecision" stroke-dashoffset="1" transform="matrix(1,0,0,1,500,225)">
      <path fill="none" d="M-377.35 315 L-335 315 L-342.65 345 L-385 345 Z" clip-path="url(#clipPath2)"/>
    </g>
    <g text-rendering="geometricPrecision" stroke-miterlimit="1.45" shape-rendering="geometricPrecision" transform="matrix(1,0,0,1,500,225)" stroke-linecap="butt">
      <text x="-386.3613" xml:space="preserve" y="328.6016" clip-path="url(#clipPath2)" stroke="none">vcmax25</text>
    </g>
    <g fill="rgb(255,174,150)" text-rendering="geometricPrecision" shape-rendering="geometricPrecision" transform="matrix(1,0,0,1,500,225)" stroke="rgb(255,174,150)">
      <path d="M-467.35 315 L-425 315 L-432.65 345 L-475 345 Z" stroke="none" clip-path="url(#clipPath2)"/>
    </g>
    <g text-rendering="geometricPrecision" stroke-dasharray="2,2" shape-rendering="geometricPrecision" stroke-dashoffset="1" transform="matrix(1,0,0,1,500,225)">
      <path fill="none" d="M-467.35 315 L-425 315 L-432.65 345 L-475 345 Z" clip-path="url(#clipPath2)"/>
    </g>
    <g text-rendering="geometricPrecision" stroke-miterlimit="1.45" shape-rendering="geometricPrecision" transform="matrix(1,0,0,1,500,225)" stroke-linecap="butt">
      <text x="-456.2314" xml:space="preserve" y="328.6016" clip-path="url(#clipPath2)" stroke="none">rd</text>
    </g>
    <g fill="rgb(255,174,150)" text-rendering="geometricPrecision" shape-rendering="geometricPrecision" transform="matrix(1,0,0,1,500,225)" stroke="rgb(255,174,150)">
      <path d="M-47.35 315 L-5 315 L-12.65 345 L-55 345 Z" stroke="none" clip-path="url(#clipPath2)"/>
    </g>
    <g text-rendering="geometricPrecision" stroke-dasharray="2,2" shape-rendering="geometricPrecision" stroke-dashoffset="1" transform="matrix(1,0,0,1,500,225)">
      <path fill="none" d="M-47.35 315 L-5 315 L-12.65 345 L-55 345 Z" clip-path="url(#clipPath2)"/>
    </g>
    <g text-rendering="geometricPrecision" stroke-miterlimit="1.45" shape-rendering="geometricPrecision" transform="matrix(1,0,0,1,500,225)" stroke-linecap="butt">
      <text x="-44.4199" xml:space="preserve" y="328.6016" clip-path="url(#clipPath2)" stroke="none">jmax</text>
    </g>
    <g text-rendering="geometricPrecision" shape-rendering="geometricPrecision" transform="matrix(1,0,0,1,500,225)" stroke-linecap="butt">
      <path fill="none" d="M510 -165.0293 L510 -200 L509.375 -204.375 L507.5 -207.5 L504.375 -209.375 L500 -210 L250 -210 L245.625 -209.375 L242.5 -207.5 L240.625 -204.375 L240 -200 L240 -173.0293" clip-path="url(#clipPath2)"/>
    </g>
    <g text-rendering="geometricPrecision" shape-rendering="geometricPrecision" transform="matrix(1,0,0,1,500,225)" stroke-linecap="butt">
      <path d="M240 -165.0293 L245 -177.0293 L240 -174.0293 L235 -177.0293 Z" stroke="none" clip-path="url(#clipPath2)"/>
      <path fill="none" d="M126.4526 -140.5811 L-118.9833 -42.4067" clip-path="url(#clipPath2)"/>
      <path d="M-126.4111 -39.4356 L-113.4124 -39.2499 L-118.0548 -42.7781 L-117.1263 -48.5346 Z" clip-path="url(#clipPath2)" stroke="none"/>
      <path fill="none" d="M-150 -135.0293 L-150 -53.0005" clip-path="url(#clipPath2)"/>
      <path d="M-150 -45.0005 L-145 -57.0005 L-150 -54.0005 L-155 -57.0005 Z" clip-path="url(#clipPath2)" stroke="none"/>
      <path fill="none" d="M142.5146 -135.0293 L101.078 -52.1559" clip-path="url(#clipPath2)"/>
      <path d="M97.5003 -45.0005 L107.339 -53.4976 L101.5252 -53.0504 L98.3947 -57.9697 Z" clip-path="url(#clipPath2)" stroke="none"/>
      <path fill="none" d="M221.2866 -135.0293 L114.9976 -49.9981" clip-path="url(#clipPath2)"/>
      <path d="M108.7507 -45.0005 L121.2446 -48.5925 L115.7785 -50.6228 L114.9976 -56.4012 Z" clip-path="url(#clipPath2)" stroke="none"/>
      <path fill="none" d="M164.9707 -135.0293 L249.3426 -50.6574" clip-path="url(#clipPath2)"/>
      <path d="M254.9995 -45.0005 L250.0497 -57.0213 L248.6355 -51.3645 L242.9787 -49.9503 Z" clip-path="url(#clipPath2)" stroke="none"/>
      <path fill="none" d="M243.7427 -135.0293 L264.3096 -52.7617" clip-path="url(#clipPath2)"/>
      <path d="M266.2499 -45.0005 L268.1901 -57.8549 L264.067 -53.7318 L258.4887 -55.4295 Z" clip-path="url(#clipPath2)" stroke="none"/>
      <path fill="none" d="M153.7427 -135.0293 L174.3096 -52.7617" clip-path="url(#clipPath2)"/>
      <path d="M176.2499 -45.0005 L178.1902 -57.8549 L174.067 -53.7318 L168.4887 -55.4296 Z" clip-path="url(#clipPath2)" stroke="none"/>
      <path fill="none" d="M232.5146 -135.0293 L191.078 -52.1559" clip-path="url(#clipPath2)"/>
      <path d="M187.5003 -45.0005 L197.339 -53.4976 L191.5252 -53.0504 L188.3947 -57.9697 Z" clip-path="url(#clipPath2)" stroke="none"/>
      <path fill="none" d="M333.7427 -135.0293 L354.3096 -52.7617" clip-path="url(#clipPath2)"/>
      <path d="M356.2499 -45.0005 L358.1901 -57.8549 L354.067 -53.7318 L348.4887 -55.4295 Z" clip-path="url(#clipPath2)" stroke="none"/>
      <path fill="none" d="M254.9707 -135.0293 L339.3426 -50.6574" clip-path="url(#clipPath2)"/>
      <path d="M344.9995 -45.0005 L340.0497 -57.0213 L338.6355 -51.3645 L332.9787 -49.9503 Z" clip-path="url(#clipPath2)" stroke="none"/>
      <path fill="none" d="M262.5146 -15.0293 L223.5652 62.8695" clip-path="url(#clipPath2)"/>
      <path d="M219.9875 70.0249 L229.8262 61.5279 L224.0125 61.9751 L220.8819 57.0558 Z" clip-path="url(#clipPath2)" stroke="none"/>
      <path fill="none" d="M104.9707 -15.0293 L184.3681 64.3681" clip-path="url(#clipPath2)"/>
      <path d="M190.0249 70.0249 L185.0752 58.0041 L183.661 63.661 L178.0041 65.0752 Z" clip-path="url(#clipPath2)" stroke="none"/>
      <path fill="none" d="M183.7427 -15.0293 L203.0659 62.2638" clip-path="url(#clipPath2)"/>
      <path d="M205.0062 70.0249 L206.9465 57.1706 L202.8234 61.2937 L197.2451 59.5959 Z" clip-path="url(#clipPath2)" stroke="none"/>
      <path fill="none" d="M341.2866 -15.0293 L241.2158 65.0274" clip-path="url(#clipPath2)"/>
      <path d="M234.9688 70.0249 L247.4627 66.433 L241.9966 64.4027 L241.2158 58.6243 Z" clip-path="url(#clipPath2)" stroke="none"/>
      <path fill="none" d="M420 -135.0146 L420 20 L419.399 24.5467 L417.5962 28.1868 L414.5914 30.9203 L410.3848 32.7472 L262.6812 74.9482" clip-path="url(#clipPath2)"/>
      <path d="M254.989 77.146 L267.9009 78.657 L263.6427 74.6735 L265.1537 69.0417 Z" clip-path="url(#clipPath2)" stroke="none"/>
      <path fill="none" d="M-136.2433 -134.9927 L8.2428 22.6285 L15.7001 28.8923 L24.5578 32.9409 L157.3648 73.8045" clip-path="url(#clipPath2)"/>
      <path d="M165.011 76.1572 L155.0121 67.8493 L156.409 73.5105 L152.0712 77.4071 Z" clip-path="url(#clipPath2)" stroke="none"/>
      <path fill="none" d="M210 110.0098 L210 187.0112" clip-path="url(#clipPath2)"/>
      <path d="M210 195.0112 L215 183.0112 L210 186.0112 L205 183.0112 Z" clip-path="url(#clipPath2)" stroke="none"/>
      <path fill="none" d="M-150 -15.0293 L-150 62.0249" clip-path="url(#clipPath2)"/>
      <path d="M-150 70.0249 L-145 58.0249 L-150 61.0249 L-155 58.0249 Z" clip-path="url(#clipPath2)" stroke="none"/>
      <path fill="none" d="M-300 -135.0146 L-300 20 L-299.4197 24.6071 L-297.6788 28.4285 L-294.7773 31.4641 L-290.7152 33.7139 L-202.4351 69.0259" clip-path="url(#clipPath2)"/>
      <path d="M-195.0073 71.9971 L-204.2921 62.898 L-203.3636 68.6546 L-208.006 72.1828 Z" clip-path="url(#clipPath2)" stroke="none"/>
      <path fill="none" d="M-150 110.0098 L-150 187.0112" clip-path="url(#clipPath2)"/>
      <path d="M-150 195.0112 L-145 183.0112 L-150 186.0112 L-155 183.0112 Z" clip-path="url(#clipPath2)" stroke="none"/>
      <path fill="none" d="M-167.5085 110.0098 L-236.5954 188.9662" clip-path="url(#clipPath2)"/>
      <path d="M-241.8635 194.9868 L-230.1985 189.2484 L-235.9369 188.2136 L-237.7243 182.6634 Z" clip-path="url(#clipPath2)" stroke="none"/>
      <path fill="none" d="M189.9902 110.0098 L110.67 189.33" clip-path="url(#clipPath2)"/>
      <path d="M105.0132 194.9868 L117.034 190.0371 L111.3771 188.6228 L109.9629 182.966 Z" clip-path="url(#clipPath2)" stroke="none"/>
      <path fill="none" d="M71.2207 200.6104 L-102.8509 113.5745" clip-path="url(#clipPath2)"/>
      <path d="M-110.0064 109.9968 L-101.5093 119.8355 L-101.9565 114.0217 L-97.0372 110.8912 Z" clip-path="url(#clipPath2)" stroke="none"/>
      <path fill="none" d="M164.9707 90 L119.1953 90" clip-path="url(#clipPath2)"/>
      <path d="M111.1953 90 L123.1953 95 L120.1953 90 L123.1953 85 Z" clip-path="url(#clipPath2)" stroke="none"/>
      <path fill="none" d="M68.8184 90 L-96.9916 90" clip-path="url(#clipPath2)"/>
      <path d="M-104.9916 90 L-92.9916 95 L-95.9916 90 L-92.9916 85 Z" clip-path="url(#clipPath2)" stroke="none"/>
      <path fill="none" d="M231.1816 210 L300.8177 210" clip-path="url(#clipPath2)"/>
      <path d="M308.8177 210 L296.8177 205 L299.8177 210 L296.8177 215 Z" clip-path="url(#clipPath2)" stroke="none"/>
      <path fill="none" d="M358.1287 -15.0293 L332.8705 187.036" clip-path="url(#clipPath2)"/>
      <path d="M331.8782 194.9742 L338.328 183.6871 L332.9945 186.0437 L328.4052 182.4467 Z" clip-path="url(#clipPath2)" stroke="none"/>
      <path fill="none" d="M365.614 -15.0293 L441.5564 187.4836" clip-path="url(#clipPath2)"/>
      <path d="M444.3653 194.9743 L444.8335 181.9827 L441.2052 186.5473 L435.4702 185.4939 Z" clip-path="url(#clipPath2)" stroke="none"/>
      <path fill="none" d="M351.1816 210 L420.8177 210" clip-path="url(#clipPath2)"/>
      <path d="M428.8177 210 L416.8177 205 L419.8177 210 L416.8177 215 Z" clip-path="url(#clipPath2)" stroke="none"/>
      <path fill="none" d="M134.9707 -165.0293 L127.0711 -172.9289 L119.2678 -178.2322 L110 -180 L-350 -180 L-354.375 -179.375 L-357.5 -177.5 L-359.375 -174.375 L-360 -170 L-360 -52.978" clip-path="url(#clipPath2)"/>
      <path d="M-360 -44.978 L-355 -56.978 L-360 -53.978 L-365 -56.978 Z" clip-path="url(#clipPath2)" stroke="none"/>
      <path fill="none" d="M-255 194.9707 L-255 160 L-255.5426 155.9351 L-257.1706 153.7404 L-259.8839 153.4158 L-263.6824 154.9614 L-328.2652 191.8658" clip-path="url(#clipPath2)"/>
      <path d="M-335.2112 195.835 L-322.3116 194.2225 L-327.397 191.3697 L-327.2729 185.5401 Z" clip-path="url(#clipPath2)" stroke="none"/>
      <path fill="none" d="M-360 -15.0293 L-360 186.9742" clip-path="url(#clipPath2)"/>
      <path d="M-360 194.9742 L-355 182.9742 L-360 185.9742 L-365 182.9742 Z" clip-path="url(#clipPath2)" stroke="none"/>
      <path fill="none" d="M150 -165.0293 L150 -200 L149.375 -204.375 L147.5 -207.5 L144.375 -209.375 L140 -210 L-440 -210 L-444.375 -209.375 L-447.5 -207.5 L-449.375 -204.375 L-450 -200 L-450 -52.9854" clip-path="url(#clipPath2)"/>
      <path d="M-450 -44.9854 L-445 -56.9854 L-450 -53.9854 L-455 -56.9854 Z" clip-path="url(#clipPath2)" stroke="none"/>
      <path fill="none" d="M-450 -15.0293 L-450 186.9742" clip-path="url(#clipPath2)"/>
      <path d="M-450 194.9742 L-445 182.9742 L-450 185.9742 L-455 182.9742 Z" clip-path="url(#clipPath2)" stroke="none"/>
      <path fill="none" d="M-365.614 -15.0293 L-441.5564 187.4836" clip-path="url(#clipPath2)"/>
      <path d="M-444.3653 194.9743 L-435.4702 185.4939 L-441.2052 186.5473 L-444.8335 181.9827 Z" clip-path="url(#clipPath2)" stroke="none"/>
      <path fill="none" d="M-255 194.9707 L-255 160 L-255.625 155.625 L-257.5 152.5 L-260.625 150.625 L-265 150 L-380 150 L-389.2678 151.7678 L-397.0711 157.0711 L-429.3138 189.3138" clip-path="url(#clipPath2)"/>
      <path d="M-434.9707 194.9707 L-422.9499 190.021 L-428.6068 188.6067 L-430.021 182.9499 Z" clip-path="url(#clipPath2)" stroke="none"/>
      <path fill="none" d="M188.8184 390 L119.1823 390" clip-path="url(#clipPath2)"/>
      <path d="M111.1823 390 L123.1823 395 L120.1823 390 L123.1823 385 Z" clip-path="url(#clipPath2)" stroke="none"/>
      <path fill="none" d="M330 374.9707 L330 340 L329.375 335.625 L327.5 332.5 L324.375 330.625 L320 330 L100 330 L95.625 330.625 L92.5 332.5 L90.625 335.625 L90 340 L90 366.9707" clip-path="url(#clipPath2)"/>
      <path d="M90 374.9707 L95 362.9707 L90 365.9707 L85 362.9707 Z" clip-path="url(#clipPath2)" stroke="none"/>
      <path fill="none" d="M68.8184 390 L-140 390 L-144.375 389.375 L-147.5 387.5 L-149.375 384.375 L-150 380 L-150 352.9707" clip-path="url(#clipPath2)"/>
      <path d="M-150 344.9707 L-155 356.9707 L-150 353.9707 L-145 356.9707 Z" clip-path="url(#clipPath2)" stroke="none"/>
      <path fill="none" d="M-150 224.9707 L-150 306.9995" clip-path="url(#clipPath2)"/>
      <path d="M-150 314.9995 L-145 302.9995 L-150 305.9995 L-155 302.9995 Z" clip-path="url(#clipPath2)" stroke="none"/>
      <path fill="none" d="M68.8243 390 L-246.25 390 L-250.625 389.375 L-253.75 387.5 L-255.625 384.375 L-256.25 380 L-256.25 352.9707" clip-path="url(#clipPath2)"/>
      <path d="M-256.25 344.9707 L-261.25 356.9707 L-256.25 353.9707 L-251.25 356.9707 Z" clip-path="url(#clipPath2)" stroke="none"/>
      <path fill="none" d="M-255.1559 224.9707 L-256.0104 306.9999" clip-path="url(#clipPath2)"/>
      <path d="M-256.0938 314.9995 L-250.969 303.0522 L-256 306 L-260.9685 302.948 Z" clip-path="url(#clipPath2)" stroke="none"/>
      <path fill="none" d="M68.8239 390 L-350 390 L-354.375 389.375 L-357.5 387.5 L-359.375 384.375 L-360 380 L-360 352.9707" clip-path="url(#clipPath2)"/>
      <path d="M-360 344.9707 L-365 356.9707 L-360 353.9707 L-355 356.9707 Z" clip-path="url(#clipPath2)" stroke="none"/>
      <path fill="none" d="M-360 224.9707 L-360 306.9995" clip-path="url(#clipPath2)"/>
      <path d="M-360 314.9995 L-355 302.9995 L-360 305.9995 L-365 302.9995 Z" clip-path="url(#clipPath2)" stroke="none"/>
      <path fill="none" d="M-450 224.9707 L-450 306.9995" clip-path="url(#clipPath2)"/>
      <path d="M-450 314.9995 L-445 302.9995 L-450 305.9995 L-455 302.9995 Z" clip-path="url(#clipPath2)" stroke="none"/>
      <path fill="none" d="M68.8074 390 L-440 390 L-444.375 389.375 L-447.5 387.5 L-449.375 384.375 L-450 380 L-450 352.9707" clip-path="url(#clipPath2)"/>
      <path d="M-450 344.9707 L-455 356.9707 L-450 353.9707 L-445 356.9707 Z" clip-path="url(#clipPath2)" stroke="none"/>
      <path fill="none" d="M-237.1642 315.0095 L-202.3643 287.6768 L-193.9661 283.0442 L-184.5 281.5 L-117.5 281.5 L-107.8808 282.8262 L-99.0231 286.8049 L-55.0591 314.3178" clip-path="url(#clipPath2)"/>
      <path d="M-48.2776 318.5618 L-55.7974 307.9574 L-55.9068 313.7874 L-61.1023 316.4343 Z" clip-path="url(#clipPath2)" stroke="none"/>
      <path fill="none" d="M330 224.9707 L330 260 L329.375 264.375 L327.5 267.5 L324.375 269.375 L320 270 L40 270 L30.7322 271.7678 L22.9289 277.0711 L-9.3138 309.3138" clip-path="url(#clipPath2)"/>
      <path d="M-14.9707 314.9707 L-2.9499 310.0209 L-8.6067 308.6068 L-10.021 302.9499 Z" clip-path="url(#clipPath2)" stroke="none"/>
      <path fill="none" d="M68.8184 -30 L-20 -30 L-24.375 -29.375 L-27.5 -27.5 L-29.375 -24.375 L-30 -20 L-30 307.0146" clip-path="url(#clipPath2)"/>
      <path d="M-30 315.0146 L-25 303.0146 L-30 306.0146 L-35 303.0146 Z" clip-path="url(#clipPath2)" stroke="none"/>
      <path fill="none" d="M-300 -135.0293 L-300 90 L-290.5132 93.1623 L-129.4868 146.8377 L-121.2537 151.4455 L-115.5279 158.9443 L-41.0704 307.8592" clip-path="url(#clipPath2)"/>
      <path d="M-37.4927 315.0146 L-38.3871 302.0454 L-41.5176 306.9648 L-47.3314 306.5176 Z" clip-path="url(#clipPath2)" stroke="none"/>
      <path fill="none" d="M68.8184 390 L-20 390 L-24.375 389.375 L-27.5 387.5 L-29.375 384.375 L-30 380 L-30 352.9707" clip-path="url(#clipPath2)"/>
      <path d="M-30 344.9707 L-35 356.9707 L-30 353.9707 L-25 356.9707 Z" clip-path="url(#clipPath2)" stroke="none"/>
      <path fill="none" d="M155.7129 -17.8564 L68.9443 25.5279 L61.5177 31.2765 L57.1265 39.5783 L-23.2078 307.3594" clip-path="url(#clipPath2)"/>
      <path d="M-25.5066 315.022 L-17.2693 304.9648 L-22.9205 306.4016 L-26.8475 302.0913 Z" clip-path="url(#clipPath2)" stroke="none"/>
    </g>
  </g>
</svg>
